<svg xmlns="http://www.w3.org/2000/svg" viewBox="0 0 530 72" width="530" height="72">
	<style>
		tspan { white-space:pre }
		.shp0 { fill: #000000 } 
		.shp1 { fill: #737373 } 
		.shp2 { fill: #343434 } 
	</style>
	<path id="Noteboxers " fill-rule="evenodd" class="shp0" d="M46.67 72L37.33 72L37.33 48.67L28 48.67L28 39.33L37.33 39.33L37.33 16L46.67 16L46.67 72ZM9.33 72L0 72L0 16L9.33 16L9.33 20.67L18.67 20.67L18.67 30L28 30L28 39.33L18.67 39.33L18.67 30L9.33 30L9.33 72ZM79.33 72L60.67 72L60.67 62.67L79.33 62.67L79.33 72ZM79.33 62.67L79.33 39.33L88.67 39.33L88.67 62.67L79.33 62.67ZM60.67 62.67L51.33 62.67L51.33 39.33L60.67 39.33L60.67 62.67ZM79.33 39.33L60.67 39.33L60.67 30L79.33 30L79.33 39.33ZM116.67 72L107.33 72L107.33 62.67L116.67 62.67L116.67 72ZM107.33 62.67L98 62.67L98 39.33L93.33 39.33L93.33 30L98 30L98 20.67L107.33 20.67L107.33 30L112 30L112 39.33L107.33 39.33L107.33 62.67ZM158.67 72L130.67 72L130.67 62.67L149.33 62.67L149.33 58L158.67 58L158.67 72ZM130.67 62.67L121.33 62.67L121.33 39.33L130.67 39.33L130.67 30L158.67 30L158.67 48.67L149.33 48.67L149.33 53.33L130.67 53.33L130.67 62.67ZM149.33 44L149.33 39.33L130.67 39.33L130.67 44L149.33 44ZM200.66 72L163.33 72L163.33 16L172.66 16L172.66 44L182 44L182 53.33L172.66 53.33L172.66 62.67L200.66 62.67L200.66 72ZM200.66 62.67L200.66 44L210 44L210 62.67L200.66 62.67ZM200.66 44L182 44L182 34.67L200.66 34.67L200.66 44ZM242.66 72L224 72L224 62.67L242.66 62.67L242.66 72ZM242.66 62.67L242.66 39.33L252 39.33L252 62.67L242.66 62.67ZM224 62.67L214.66 62.67L214.66 39.33L224 39.33L224 62.67ZM242.66 39.33L224 39.33L224 30L242.66 30L242.66 39.33ZM303.33 72L294 72L294 62.67L303.33 62.67L303.33 72ZM266 72L256.66 72L256.66 62.67L266 62.67L266 72ZM294 62.67L284.66 62.67L284.66 53.33L294 53.33L294 62.67ZM266 62.67L266 53.33L275.33 53.33L275.33 62.67L266 62.67ZM284.66 53.33L275.33 53.33L275.33 44L284.66 44L284.66 53.33ZM284.66 44L284.66 34.67L294 34.67L294 44L284.66 44ZM275.33 44L266 44L266 34.67L275.33 34.67L275.33 44ZM294 34.67L294 25.33L303.33 25.33L303.33 34.67L294 34.67ZM266 34.67L256.66 34.67L256.66 25.33L266 25.33L266 34.67ZM345.33 72L317.33 72L317.33 62.67L336 62.67L336 58L345.33 58L345.33 72ZM317.33 62.67L308 62.67L308 39.33L317.33 39.33L317.33 30L345.33 30L345.33 48.67L336 48.67L336 53.33L317.33 53.33L317.33 62.67ZM336 44L336 39.33L317.33 39.33L317.33 44L336 44ZM382.66 44L378 44L378 39.33L364 39.33L364 44L359.33 44L359.33 72L350 72L350 30L359.33 30L359.33 34.67L364 34.67L364 30L378 30L378 34.67L382.66 34.67L382.66 44ZM410.66 72L387.33 72L387.33 62.67L410.66 62.67L410.66 72ZM410.66 62.67L410.66 53.33L420 53.33L420 62.67L410.66 62.67ZM410.66 53.33L396.66 53.33L396.66 44L410.66 44L410.66 53.33ZM396.66 44L387.33 44L387.33 34.67L396.66 34.67L396.66 44ZM420 34.67L396.66 34.67L396.66 25.33L420 25.33L420 34.67Z" />
	<path id="Forma 1" class="shp1" d="M450 31L462 31L462 39L450 39L450 31ZM458 4L462 4L462 32L458 32L458 4ZM461 4L466 4L466 12L461 12L461 4ZM466 8L470 8L470 16L466 16L466 8Z" />
	<path id="Forma 1 copy" class="shp2" d="M424 40.4L438.4 40.4L438.4 50L424 50L424 40.4ZM433.6 8L438.4 8L438.4 41.6L433.6 41.6L433.6 8ZM437.2 8L443.2 8L443.2 17.6L437.2 17.6L437.2 8ZM443.2 12.8L448 12.8L448 22.4L443.2 22.4L443.2 12.8Z" />
</svg>